
<svg id="Capa_2" data-name="Capa 2" xmlns="http://www.w3.org/2000/svg" xmlns:xlink="http://www.w3.org/1999/xlink" viewBox="0 0 86.75 18.61">
  <defs>
    <style>
      .cls-1 {
        fill: #fff;
      }

      .cls-2 {
        fill: url(#Degradado_sin_nombre_2);
      }

      .cls-3 {
        fill: url(#Degradado_sin_nombre_27);
      }

      .cls-4 {
        fill: #afa9ff;
      }
    </style>
    <linearGradient id="Degradado_sin_nombre_27" data-name="Degradado sin nombre 27" x1="-8.93" y1="4.23" x2="11.35" y2="15.57" gradientUnits="userSpaceOnUse">
      <stop offset="0" stop-color="#5342fd"/>
      <stop offset=".49" stop-color="#7e6efe"/>
      <stop offset=".86" stop-color="#a8a5ff"/>
      <stop offset="1" stop-color="#afa9ff"/>
    </linearGradient>
    <linearGradient id="Degradado_sin_nombre_2" data-name="Degradado sin nombre 2" x1="6.95" y1="10.89" x2="-3.73" y2="19.74" gradientUnits="userSpaceOnUse">
      <stop offset="0" stop-color="#5342fd"/>
      <stop offset=".47" stop-color="#7e6efe"/>
      <stop offset=".99" stop-color="#a8a5ff"/>
    </linearGradient>
  </defs>
  <g id="Capa_1-2" data-name="Capa 1">
    <g>
      <path class="cls-1" d="m25.94,7.03c-.32-.18-.66-.32-1-.43-.34-.1-.65-.18-.92-.24l-2.16-.49c-.28-.06-.55-.14-.83-.23-.28-.09-.51-.22-.7-.38-.19-.16-.28-.37-.28-.63s.11-.5.32-.7.5-.36.86-.47.76-.16,1.19-.16c.45,0,.87.08,1.25.21.38.14.71.33.97.58.27.25.44.56.52.91l1.82-.25c-.16-.58-.44-1.07-.86-1.47-.42-.41-.93-.72-1.56-.93-.62-.22-1.33-.33-2.12-.34-.79,0-1.5.1-2.13.31-.63.21-1.14.51-1.51.91s-.56.89-.56,1.47c0,.38.08.71.24.97.16.27.36.49.61.67s.53.32.83.44c.3.11.6.2.89.27l3,.71c.22.05.42.11.6.19.18.07.33.16.46.25.13.1.23.21.3.34.07.13.11.28.11.45,0,.31-.12.58-.36.8-.24.22-.56.39-.96.51s-.83.18-1.3.18c-.76,0-1.42-.16-1.99-.48-.57-.32-.94-.76-1.12-1.34l-1.77.21c.13.59.41,1.11.85,1.54.44.43.99.76,1.67.99.67.23,1.43.35,2.27.35.6,0,1.17-.06,1.71-.18.54-.12,1.02-.3,1.43-.54.41-.24.74-.54.98-.9s.36-.77.36-1.24-.11-.83-.32-1.13c-.21-.3-.48-.54-.8-.72Z"/>
      <path class="cls-1" d="m31.2,2.59h-1.71v1.95h-1.68v1.09h1.68v3.17c0,.38,0,.72.02,1.02s.12.6.3.89c.21.33.53.56.94.71.42.15.89.23,1.42.25.53.01,1.07-.02,1.62-.11v-1.15c-.57.06-1.07.08-1.5.04-.42-.04-.74-.19-.93-.46-.1-.14-.16-.32-.17-.53s-.01-.45-.01-.73v-3.1h2.61v-1.09h-2.61v-1.95Z"/>
      <path class="cls-1" d="m38.72,4.63c-.27.07-.52.17-.74.3-.23.12-.43.28-.6.46-.09.09-.14.21-.21.31v-1.17h-1.51v7.02h1.71v-3.54c0-.28.04-.54.11-.79.07-.25.19-.48.35-.68.16-.2.38-.38.65-.52.29-.15.61-.24.96-.27.35-.03.67,0,.95.05v-1.27c-.27-.04-.54-.05-.83-.04s-.57.06-.84.13Z"/>
      <path class="cls-1" d="m47.87,4.84c-.63-.33-1.39-.5-2.28-.5s-1.61.15-2.25.46-1.15.74-1.51,1.31c-.36.56-.54,1.23-.54,2,0,.72.18,1.36.55,1.91.37.55.88.98,1.54,1.28s1.42.46,2.29.46,1.62-.17,2.32-.52c.69-.34,1.21-.83,1.55-1.46l-1.67-.42c-.22.36-.52.64-.91.83-.39.19-.85.29-1.38.29-.81,0-1.42-.21-1.85-.63-.35-.35-.55-.82-.61-1.41h6.53c.07-.84-.06-1.57-.37-2.18-.31-.61-.78-1.08-1.41-1.41Zm-4.14,1.35c.43-.43,1.07-.64,1.92-.64.77,0,1.34.2,1.72.58.28.29.46.71.54,1.24h-4.75c.09-.49.28-.88.58-1.18Z"/>
      <path class="cls-1" d="m58.14,5.68c-.27-.46-.7-.8-1.28-1.02-.58-.21-1.27-.32-2.05-.32-1.01,0-1.82.18-2.43.53-.61.36-1.02.83-1.24,1.44l1.58.39c.15-.39.42-.68.8-.85.38-.17.81-.26,1.27-.26.73,0,1.25.13,1.55.4.26.23.4.58.42,1.02-.33.04-.66.07-.99.11-.54.06-1.06.13-1.56.19s-.93.15-1.32.24c-.45.12-.83.27-1.14.46s-.54.42-.7.69c-.16.27-.24.58-.24.94,0,.38.11.73.34,1.05.22.32.56.57,1,.77s.98.29,1.63.29c.82,0,1.51-.13,2.07-.39.43-.2.78-.51,1.09-.87v1.07h1.5v-4.32c0-.29-.02-.57-.05-.83s-.12-.5-.26-.73Zm-1.56,3.57c-.06.23-.2.45-.41.66s-.49.39-.84.52c-.35.14-.76.2-1.24.2-.36,0-.66-.05-.89-.14-.23-.09-.41-.21-.52-.37-.11-.15-.17-.32-.17-.5s.05-.34.16-.47.25-.24.43-.33.39-.17.62-.23c.28-.07.59-.13.95-.18.35-.05.75-.1,1.19-.15.28-.03.59-.07.91-.11,0,.12,0,.24-.02.39-.01.26-.07.49-.16.7Z"/>
      <path class="cls-4" d="m69.8,4.36c-.58,0-1.11.1-1.58.31-.45.2-.81.48-1.08.83-.23-.35-.54-.63-.96-.83-.44-.21-.97-.31-1.59-.31s-1.13.1-1.6.31c-.37.16-.67.39-.92.65v-.79h-1.51v7.02h1.71v-4.39c0-.48.16-.86.49-1.16.33-.29.76-.44,1.3-.44s.97.15,1.3.44c.32.29.48.69.48,1.2v4.35s1.69,0,1.69,0v-4.39s0,0,0,0c0-.35.08-.65.25-.89.17-.24.38-.41.65-.53.27-.12.56-.18.89-.18.53,0,.96.14,1.28.43.33.28.49.68.49,1.19v4.37s1.69,0,1.69,0v-4.7c0-.75-.25-1.36-.77-1.81-.52-.45-1.25-.68-2.2-.68Z"/>
      <polygon class="cls-4" points="76.75 4.54 76.75 11.56 75.06 11.56 75.06 5.58 76.75 4.54"/>
      <polygon class="cls-4" points="83.46 8.01 86.66 4.54 84.65 4.54 82.49 6.95 80.3 4.54 78.29 4.54 81.5 8.01 78.21 11.56 80.24 11.56 82.49 9.07 84.72 11.56 86.75 11.56 83.46 8.01"/>
      <g>
        <path class="cls-4" d="m23.48,13.48c-.36,0-.68.06-.97.19-.28.12-.5.29-.67.51-.14-.21-.33-.39-.59-.51-.27-.13-.6-.19-.98-.19s-.69.06-.98.19c-.23.1-.41.24-.57.4v-.48h-.93v4.32h1.05v-2.7c0-.29.1-.53.3-.71.2-.18.47-.27.8-.27s.6.09.8.27.3.43.3.74v2.68s1.04,0,1.04,0v-2.7s0,0,0,0c0-.22.05-.4.15-.55.1-.15.24-.25.4-.33.17-.07.35-.11.55-.11.33,0,.59.09.79.26s.3.42.3.73v2.69s1.04,0,1.04,0v-2.89c0-.46-.15-.84-.47-1.12-.32-.28-.77-.42-1.36-.42Z"/>
        <path class="cls-4" d="m30.3,13.76c-.4-.19-.87-.29-1.41-.29s-.99.1-1.39.29c-.4.19-.71.46-.92.8-.22.34-.33.74-.33,1.19s.11.84.32,1.19.52.61.92.81c.4.19.86.29,1.4.29s1-.1,1.4-.29.7-.46.92-.8c.22-.34.33-.74.33-1.19s-.11-.84-.33-1.18c-.22-.34-.52-.61-.92-.8Zm-.25,3.06c-.26.28-.64.42-1.16.42s-.88-.14-1.14-.41-.39-.63-.39-1.09c0-.29.06-.55.17-.77.11-.22.28-.4.51-.52.23-.13.51-.19.86-.19.51,0,.89.14,1.15.41.26.27.39.63.39,1.08s-.13.8-.38,1.08Z"/>
        <polygon class="cls-4" points="34.44 16.86 33 13.59 31.95 13.59 33.91 17.91 34.97 17.91 36.93 13.59 35.87 13.59 34.44 16.86"/>
        <rect class="cls-4" x="37.93" y="12.07" width="1.05" height=".81"/>
        <rect class="cls-4" x="37.93" y="13.59" width="1.05" height="4.32"/>
        <path class="cls-4" d="m43.66,17.06c-.24.12-.52.18-.85.18-.5,0-.88-.13-1.14-.39-.21-.21-.32-.51-.36-.87h4c.04-.52-.04-.96-.23-1.34s-.48-.67-.87-.87c-.39-.2-.86-.31-1.41-.31s-.99.09-1.38.28c-.4.19-.71.46-.93.8s-.33.76-.33,1.23c0,.45.11.84.34,1.17.22.34.54.6.95.79.4.19.88.28,1.41.28s1-.11,1.42-.32c.43-.21.75-.51.96-.9l-1.02-.26c-.13.22-.32.39-.56.51Zm-1.99-2.46c.26-.26.66-.4,1.18-.4.47,0,.83.12,1.06.36.17.18.26.45.31.76h-2.88c.06-.29.15-.55.33-.73Z"/>
      </g>
      <path class="cls-1" d="m74.24,3.63l.49-1.16c.12-.29.12-.63,0-.92l-.49-1.16c-.1-.25.17-.48.4-.34l2.82,1.73c.18.11.18.36,0,.47l-2.82,1.73c-.23.14-.5-.09-.4-.34Z"/>
      <g>
        <path class="cls-3" d="m12.72,11.2l-10.49,7.16c-.95.65-2.23-.03-2.23-1.18v-4.01c0-.55.27-1.07.73-1.38l2.58-1.76-2.58-1.76c-.46-.31-.73-.83-.73-1.38V2.86c0-1.15,1.28-1.83,2.23-1.18l10.49,7.16c.83.57.83,1.79,0,2.36Z"/>
        <path class="cls-2" d="m6.99,12.53c.91.62.91,1.96,0,2.58l-4.76,3.25c-.95.65-2.23-.03-2.23-1.18v-4.01c0-.55.27-1.07.73-1.38l2.59-1.76,3.68,2.51Z"/>
      </g>
    </g>
  </g>
</svg>